<svg xmlns="http://www.w3.org/2000/svg" viewBox="0 0 512 512" role="img" aria-label="레몬이">
  <defs>
    <linearGradient id="lemon" x1="128" y1="92" x2="386" y2="418" gradientUnits="userSpaceOnUse">
      <stop stop-color="#fff579"/>
      <stop offset=".55" stop-color="#ffd92f"/>
      <stop offset="1" stop-color="#f6b91c"/>
    </linearGradient>
    <linearGradient id="leaf" x1="292" y1="75" x2="423" y2="141" gradientUnits="userSpaceOnUse">
      <stop stop-color="#79d864"/>
      <stop offset="1" stop-color="#299f58"/>
    </linearGradient>
  </defs>
  <rect width="512" height="512" rx="112" fill="#f8ffe6"/>
  <path d="M307 63c51-4 86 17 122 62-48 21-91 20-128-4-21-13-17-55 6-58Z" fill="url(#leaf)"/>
  <path d="M385 105c-42 1-71 15-103 48" fill="none" stroke="#167d45" stroke-width="17" stroke-linecap="round"/>
  <path d="M88 280c0-98 78-178 174-178 93 0 162 68 162 159 0 98-83 187-181 187-90 0-155-72-155-168Z" fill="url(#lemon)" stroke="#e8a912" stroke-width="18"/>
  <path d="M127 282c0-76 59-140 134-140" fill="none" stroke="#fff9a5" stroke-width="20" stroke-linecap="round" opacity=".78"/>
  <circle cx="200" cy="265" r="20" fill="#253622"/>
  <circle cx="323" cy="265" r="20" fill="#253622"/>
  <path d="M221 336c22 22 59 22 82 0" fill="none" stroke="#253622" stroke-width="17" stroke-linecap="round"/>
  <circle cx="155" cy="309" r="21" fill="#ffb7a8" opacity=".75"/>
  <circle cx="367" cy="309" r="21" fill="#ffb7a8" opacity=".75"/>
</svg>
